<?xml version="1.0" standalone="no"?>
<!DOCTYPE svg PUBLIC "-//W3C//DTD SVG 20010904//EN"
 "http://www.w3.org/TR/2001/REC-SVG-20010904/DTD/svg10.dtd">
<svg version="1.0" xmlns="http://www.w3.org/2000/svg"
 width="1280.000000pt" height="720.000000pt" viewBox="0 0 1280.000000 720.000000"
 preserveAspectRatio="xMidYMid meet">

<g transform="translate(0.000000,720.000000) scale(0.100000,-0.100000)"
fill="#000000" stroke="none">
<path d="M5169 7198 c-1 -5 -7 -124 -9 -186 -3 -92 -20 -86 -20 7 l0 81 -48 0
c-36 0 -54 -5 -67 -20 -22 -24 -30 -111 -10 -104 14 6 28 -23 18 -38 -3 -6 -1
-8 4 -5 11 7 47 -26 38 -35 -3 -3 4 -13 15 -23 27 -24 25 -31 -10 -44 -17 -5
-33 -18 -36 -28 -3 -10 -11 -28 -17 -40 -13 -28 -3 -41 17 -24 16 14 76 6 76
-9 0 -5 6 -7 13 -4 15 5 37 -35 37 -67 0 -23 -48 -54 -97 -64 -19 -3 -37 -13
-40 -21 -10 -26 -35 6 -31 40 3 27 0 31 -22 31 -18 0 -26 -6 -28 -22 -2 -13
-7 -23 -11 -23 -9 0 -7 -22 3 -61 7 -24 11 -26 41 -19 19 4 37 5 40 2 3 -3 11
3 19 13 12 16 20 18 62 9 l49 -9 -3 -45 c-2 -26 -11 -49 -20 -57 -15 -12 -15
-12 -1 -7 23 7 29 -22 29 -137 0 -80 -3 -99 -18 -112 -10 -10 -22 -17 -26 -17
-17 0 -56 -39 -46 -45 15 -9 2 -25 -20 -25 -10 0 -34 -14 -52 -30 -32 -30 -66
-36 -61 -12 2 8 -11 12 -37 12 -22 0 -40 -4 -40 -10 0 -5 -20 -10 -44 -10 -26
0 -48 -6 -56 -15 -7 -8 -29 -15 -49 -15 -44 0 -71 -14 -47 -23 25 -10 19 -34
-11 -41 -26 -7 -224 -2 -448 11 -66 4 -167 8 -224 8 l-104 0 1 -188 c0 -103 4
-192 7 -197 4 -6 1 -18 -7 -27 -9 -11 -13 -46 -12 -112 0 -53 -1 -86 -3 -74
-4 22 -4 22 -30 -5 -14 -15 -29 -37 -34 -49 -4 -12 -21 -28 -36 -35 -15 -8
-27 -20 -25 -26 1 -7 -9 -12 -23 -12 -15 0 -25 -6 -25 -14 0 -8 -3 -21 -6 -30
-4 -11 0 -16 14 -16 19 0 52 -33 52 -52 0 -11 -38 -10 -45 1 -3 6 -13 10 -23
10 -9 0 -29 3 -45 7 -22 5 -26 4 -21 -10 8 -21 -18 -31 -45 -16 -12 6 -21 20
-21 32 0 16 -3 19 -11 11 -6 -6 -25 -7 -50 -3 -49 9 -50 0 -3 -25 20 -10 53
-36 75 -57 21 -21 39 -33 39 -27 0 7 19 8 58 3 31 -3 58 -8 60 -9 8 -7 -24
-44 -40 -48 -12 -4 -16 -11 -12 -21 3 -9 1 -29 -5 -44 -9 -23 -16 -56 -20 -94
-1 -5 -10 -8 -21 -8 -16 0 -20 -7 -20 -35 0 -24 5 -35 15 -35 18 0 18 1 0 -43
-8 -20 -23 -38 -33 -41 -10 -4 -25 -18 -33 -32 -14 -27 -76 -64 -96 -57 -11 4
-26 -27 -27 -56 -1 -8 -15 -18 -33 -23 -18 -5 -35 -13 -38 -18 -3 -6 -14 -10
-23 -10 -13 0 -21 -14 -30 -52 -10 -44 -10 -55 3 -75 10 -15 15 -44 14 -85 -1
-40 -4 -56 -9 -43 -10 27 -46 58 -59 51 -5 -3 -21 -2 -35 4 -29 10 -31 5 -16
-34 7 -20 6 -26 -5 -26 -24 0 -27 -19 -5 -48 20 -27 19 -62 -1 -62 -5 0 -18
-9 -29 -20 -11 -11 -27 -20 -35 -20 -17 0 -20 -17 -4 -22 6 -2 -9 -20 -34 -40
-34 -28 -47 -48 -56 -82 -6 -25 -15 -48 -21 -51 -5 -3 -10 -19 -10 -34 0 -43
-33 -77 -81 -85 -22 -4 -54 -13 -69 -21 -32 -17 -82 -86 -98 -136 -33 -101
-20 -142 47 -154 46 -8 85 -47 96 -95 7 -32 -1 -54 -16 -44 -6 3 -16 -1 -22
-10 -10 -14 -21 -14 -75 -6 -86 14 -102 5 -102 -60 0 -54 3 -58 26 -35 18 18
42 8 87 -33 45 -42 26 -96 -27 -76 -10 4 -16 1 -16 -9 0 -16 29 -27 76 -27 30
0 32 -2 38 -49 4 -31 1 -70 -9 -109 -15 -56 -15 -64 0 -92 9 -17 23 -34 31
-37 8 -3 14 -19 14 -39 0 -26 -6 -36 -27 -46 -23 -11 -29 -21 -31 -53 -2 -22
-11 -48 -19 -57 -13 -15 -14 -18 -1 -23 7 -3 15 -19 16 -36 3 -33 53 -90 75
-86 7 1 11 -4 10 -10 -2 -7 0 -12 5 -10 4 1 8 -2 10 -8 2 -5 -5 -11 -15 -13
-54 -9 -58 -11 -59 -42 -1 -17 -9 -36 -18 -43 -16 -12 -16 -14 3 -31 14 -13
42 -20 88 -23 65 -5 70 -4 100 24 22 20 34 26 37 18 2 -7 23 -16 46 -20 37 -6
41 -10 36 -29 -3 -11 -6 -32 -6 -45 0 -19 -3 -21 -14 -12 -12 10 -15 7 -18
-16 -3 -26 -7 -28 -46 -29 -37 -1 -45 3 -52 22 -8 20 -14 23 -42 17 -18 -3
-36 -11 -40 -17 -4 -6 -13 -11 -20 -12 -7 0 -21 -2 -30 -2 -12 -2 -18 -13 -20
-39 -2 -32 1 -40 21 -51 13 -7 38 -11 55 -9 17 3 23 2 14 0 -10 -2 -18 -7 -18
-11 1 -6 55 -52 117 -99 15 -12 15 -14 -3 -34 -18 -20 -18 -21 0 -35 11 -7 18
-15 15 -16 -29 -18 -51 -28 -63 -28 -8 0 -33 -21 -55 -46 -52 -60 -53 -112 -3
-201 18 -33 16 -39 -32 -67 -41 -24 -96 -65 -211 -159 -40 -32 -165 -146 -175
-159 -3 -3 -32 -17 -65 -29 -42 -16 -74 -37 -108 -72 l-48 -50 -57 5 c-31 3
-49 3 -40 1 10 -2 15 -10 11 -19 -3 -7 -9 -11 -14 -8 -5 3 -9 0 -9 -5 0 -6 14
-11 30 -11 17 0 33 -6 36 -14 5 -14 -33 -96 -45 -96 -3 0 -12 -13 -19 -30 -11
-25 -19 -30 -45 -29 -18 0 -26 3 -19 6 6 2 12 11 12 20 0 10 -9 14 -28 12 -29
-3 -62 19 -62 41 0 6 -8 10 -17 8 -10 -2 -17 -10 -16 -16 2 -7 2 -12 0 -12 -1
0 -17 -4 -35 -9 -20 -6 -30 -6 -27 0 4 5 12 9 19 9 8 0 19 7 26 15 22 26 -16
29 -72 6 -28 -11 -58 -21 -67 -21 -9 0 -43 -14 -76 -30 -33 -17 -65 -30 -72
-30 -7 0 -13 -6 -13 -14 0 -9 20 -15 65 -19 75 -7 119 -1 136 19 16 19 27 17
25 -4 -1 -13 8 -18 46 -20 33 -2 45 -7 42 -16 -3 -9 11 -11 61 -8 52 4 65 1
65 -10 0 -9 -30 -55 -66 -104 -36 -49 -73 -102 -81 -119 -9 -16 -30 -50 -47
-75 -55 -80 -96 -161 -96 -190 0 -28 -24 -65 -80 -125 -47 -50 -100 -123 -100
-137 0 -5 412 -8 915 -8 661 0 915 3 915 11 0 24 104 224 168 321 37 57 89
139 115 183 26 44 87 132 135 195 l88 115 124 62 c69 34 141 65 160 68 38 7
149 44 165 55 6 4 51 24 100 43 90 36 230 62 273 51 11 -4 60 3 109 14 48 11
111 23 138 27 28 3 88 17 134 31 46 13 88 21 92 18 5 -3 64 -7 131 -9 68 -1
130 -6 138 -9 11 -5 37 19 88 79 75 88 105 106 148 86 23 -10 35 -51 15 -51
-5 0 -11 -17 -15 -37 -4 -27 -16 -46 -41 -66 -19 -15 -35 -36 -35 -45 0 -9 -9
-28 -20 -42 -27 -34 -27 -54 0 -40 16 9 20 8 20 -5 0 -9 -7 -18 -15 -21 -8 -4
-15 -14 -15 -23 0 -9 -9 -33 -19 -54 -26 -50 -11 -47 30 8 21 28 42 44 55 45
13 0 29 12 39 28 10 15 32 40 49 55 l31 28 -24 19 c-20 18 -22 23 -12 51 6 18
11 43 11 55 0 29 14 30 65 4 22 -11 58 -20 81 -20 45 0 141 -30 176 -54 13 -9
43 -16 71 -16 26 0 61 -7 77 -15 25 -13 82 -76 132 -148 9 -13 41 -37 70 -52
57 -30 157 -106 199 -152 14 -15 41 -40 60 -54 19 -15 49 -51 67 -82 29 -48
34 -67 40 -150 6 -80 11 -99 34 -129 33 -43 46 -91 57 -210 5 -52 16 -111 25
-131 l15 -37 418 0 418 0 105 103 c188 184 379 301 528 324 55 8 80 5 107 -13
13 -9 30 -12 36 -8 8 5 9 3 4 -6 -5 -8 -3 -11 6 -8 7 2 22 -4 33 -14 11 -10
23 -18 26 -18 13 0 80 114 80 135 0 12 -50 71 -128 150 -129 130 -219 234
-367 420 -114 144 -207 252 -317 367 -16 16 -28 35 -28 44 0 8 -6 17 -14 20
-23 9 13 44 45 44 17 0 28 6 31 17 6 25 -18 80 -40 92 -10 5 -27 26 -37 45
-11 20 -28 39 -38 42 -10 3 -16 8 -14 11 9 9 57 10 57 2 0 -5 7 -9 15 -9 8 0
15 6 15 14 0 16 56 61 85 69 17 4 17 5 -3 6 -45 2 -17 26 31 26 55 0 59 3 63
53 4 53 20 91 41 98 83 27 92 39 98 135 2 36 -2 67 -11 84 -8 16 -13 29 -11
31 2 2 23 0 47 -4 41 -7 43 -9 46 -47 2 -22 4 -54 4 -72 0 -34 14 -52 23 -29
4 11 15 10 59 -5 75 -26 96 -24 108 7 13 32 0 51 -47 71 -29 11 -47 27 -25 21
13 -4 52 22 52 35 0 11 36 40 50 42 37 4 38 45 4 91 l-27 34 32 11 c47 17 40
35 -12 29 -13 -1 -18 4 -15 17 2 10 -2 23 -9 28 -10 8 -10 17 4 47 9 21 22 37
28 36 18 -4 74 31 86 54 6 12 11 46 10 76 -1 44 4 60 24 84 25 30 34 82 15 93
-5 3 -10 18 -10 32 0 18 -14 39 -41 65 -38 36 -40 40 -25 57 9 10 15 28 15 42
-1 14 -3 17 -6 8 -2 -9 -20 -23 -39 -32 -44 -21 -44 -21 -44 3 0 11 5 20 10
20 6 0 10 5 10 10 0 6 -8 10 -18 10 -20 0 -62 39 -62 58 0 15 46 16 55 2 3 -5
-3 -10 -14 -10 -12 0 -21 -4 -21 -9 0 -6 20 -8 45 -4 29 3 51 1 60 -7 14 -12
20 -6 15 15 -1 6 -3 18 -4 28 -1 17 -41 39 -109 61 -13 4 -17 12 -12 26 4 11
6 45 6 75 0 44 -5 63 -28 97 -24 36 -34 43 -60 41 -38 -2 -65 25 -68 67 -3 34
-15 52 -22 32 -8 -22 -23 -2 -23 32 0 29 -4 35 -32 42 -31 8 -30 8 21 12 43 2
54 7 58 23 3 10 11 19 19 19 16 0 64 93 64 124 0 13 10 36 21 50 l22 28 -29
-4 c-22 -2 -30 -10 -36 -35 -5 -18 -12 -34 -16 -37 -10 -6 -94 14 -106 25 -15
14 14 40 38 34 19 -6 18 -4 -4 14 -22 17 -23 23 -12 40 19 33 14 34 -24 5 -34
-26 -35 -30 -29 -70 6 -42 6 -43 -22 -40 -17 2 -29 10 -31 20 -3 13 -10 16
-27 12 -27 -7 -43 10 -26 27 6 6 11 18 11 28 0 12 6 15 24 12 24 -5 24 -4 12
28 -21 59 -35 77 -66 84 -25 5 -29 10 -19 21 8 10 7 17 -5 29 -9 9 -16 27 -16
40 0 13 -4 27 -10 30 -5 3 -10 35 -10 71 0 37 -4 64 -10 64 -6 0 -15 11 -20
25 -6 15 -17 25 -29 25 -10 0 -32 13 -47 29 -16 16 -38 31 -48 32 -29 6 -43
34 -26 54 13 16 15 16 27 -1 12 -16 13 -13 13 20 0 32 -3 37 -17 32 -20 -8
-33 10 -33 47 0 15 -4 27 -10 27 -5 0 -10 5 -10 12 0 6 7 4 18 -5 22 -20 45
-22 40 -4 -3 6 -30 25 -61 40 -39 19 -59 36 -63 52 -3 14 -19 28 -37 36 -18 7
-38 21 -45 31 -7 10 -17 16 -22 13 -5 -3 -12 6 -16 20 -9 36 18 65 44 48 9 -7
32 -20 50 -29 17 -9 32 -22 32 -30 0 -7 5 -16 11 -20 7 -4 9 2 7 17 -4 32 36
39 52 10 6 -12 17 -21 25 -21 8 0 22 -12 32 -26 16 -26 17 -26 24 -5 11 27 34
18 50 -21 7 -16 23 -34 36 -39 17 -6 23 -14 19 -27 -9 -26 34 -48 62 -33 20
11 21 41 1 41 -5 0 -9 4 -9 9 0 4 12 8 28 7 20 -1 28 -7 30 -23 3 -23 32 -33
32 -11 0 6 9 3 20 -7 14 -13 17 -22 10 -31 -15 -17 9 -24 38 -11 17 8 29 8 42
0 10 -7 21 -9 24 -6 10 10 7 35 -3 29 -5 -4 -21 -2 -36 4 -20 8 -26 16 -22 29
3 13 -1 21 -14 24 -33 9 -19 69 18 73 10 1 26 5 35 9 15 6 17 2 15 -29 -4 -48
10 -36 18 17 4 23 11 47 17 53 11 15 -39 57 -59 50 -20 -8 -28 21 -14 50 10
22 8 26 -13 34 -13 5 -33 6 -44 4 -12 -4 -22 0 -26 11 -9 25 3 37 30 31 16 -4
29 0 40 13 10 11 24 16 35 14 23 -6 38 25 18 37 -7 5 -17 6 -21 4 -11 -7 -10
-1 7 37 8 19 14 28 15 21 0 -7 8 -12 18 -11 32 3 40 -1 38 -18 -1 -12 5 -17
17 -15 10 2 24 -2 32 -8 9 -8 15 -8 20 0 3 5 11 10 17 10 10 0 6 -75 -5 -87
-11 -10 46 -74 83 -93 56 -29 129 -7 130 38 0 6 7 12 15 12 26 0 37 37 23 78
-25 75 -65 93 -108 47 -14 -15 -34 -25 -49 -24 -17 1 -20 3 -8 6 9 2 15 9 11
14 -3 5 -7 30 -8 56 -2 36 -9 51 -30 70 -28 23 -66 31 -66 13 0 -5 8 -10 17
-10 25 0 7 -13 -22 -16 -20 -2 -28 3 -36 23 -8 21 -14 24 -37 18 -15 -3 -28
-11 -30 -16 -6 -14 -20 -11 -52 12 -17 13 -35 19 -45 15 -11 -4 -18 0 -22 13
-3 11 -16 21 -31 24 -15 3 -38 8 -52 11 -14 4 -2 -5 25 -19 28 -14 42 -23 31
-20 -14 4 -17 1 -11 -12 20 -48 18 -53 -13 -53 -25 0 -37 8 -56 36 -21 31 -25
33 -34 19 -8 -15 -16 -10 -65 35 -31 28 -54 57 -51 64 8 20 -38 55 -61 46 -18
-8 -18 -9 5 -10 15 -1 19 -4 10 -7 -8 -2 -22 -7 -30 -10 -8 -3 -29 -6 -47 -7
-25 -2 -34 2 -42 21 -6 14 -8 29 -5 35 3 5 -2 8 -12 6 -24 -4 -94 49 -94 71 0
9 6 23 13 30 10 10 5 11 -24 6 -37 -7 -47 0 -84 59 -6 9 -31 18 -65 21 -30 3
-59 10 -64 16 -6 6 -6 9 0 9 5 0 3 4 -5 9 -7 5 -42 6 -77 3 -73 -5 -97 6 -88
43 5 20 2 23 -13 19 -15 -4 -21 2 -29 33 -5 23 -18 42 -31 49 -13 6 -20 14
-17 17 4 3 -5 12 -19 18 -14 6 -28 19 -30 28 -3 10 -5 8 -6 -6 -1 -32 -22 -29
-58 10 -44 45 -65 63 -84 70 -14 5 -18 30 -24 161 -7 149 1 724 11 814 3 24
25 87 51 140 31 67 47 115 50 155 l6 57 -992 0 c-545 0 -991 -1 -992 -2z
m2798 -1894 c-3 -3 -12 -4 -19 -1 -8 3 -5 6 6 6 11 1 17 -2 13 -5z m583 -191
c-1 -38 -30 -74 -30 -38 0 11 -7 14 -24 9 -21 -5 -25 -2 -23 15 1 17 8 21 39
21 21 0 38 -3 38 -7z m173 -92 c7 -28 -7 -44 -32 -36 -22 7 -25 14 -15 39 8
22 41 20 47 -3z m-110 -48 c4 -3 2 -12 -3 -19 -6 -6 -9 -18 -8 -25 2 -7 -5
-15 -14 -17 -13 -2 -18 3 -18 16 0 42 23 66 43 45z m79 -22 c12 -11 -22 -52
-40 -49 -16 3 -25 33 -17 56 5 13 40 9 57 -7z m-532 -81 c0 -5 -9 -10 -21 -10
-11 0 -17 5 -14 10 3 6 13 10 21 10 8 0 14 -4 14 -10z m-4380 -41 c0 -13 -53
-64 -76 -73 -11 -4 -15 -2 -11 8 4 10 0 14 -14 11 -10 -2 -23 -6 -27 -9 -4 -2
-14 -1 -22 5 -15 9 -13 10 28 14 12 1 32 14 45 28 22 26 77 37 77 16z m4379
-26 c10 -17 12 -17 26 1 8 11 18 17 21 13 10 -9 -44 -77 -62 -77 -18 0 -54 36
-54 54 0 28 54 35 69 9z m31 -83 c0 -5 14 -10 30 -10 17 0 30 -4 30 -10 0 -16
-47 -12 -64 6 -19 18 -20 24 -6 24 6 0 10 -4 10 -10z m-2875 -44 c39 -3 91 -5
118 -5 35 -1 47 -5 47 -16 0 -8 9 -15 20 -15 18 0 80 -54 80 -70 0 -4 9 -10
20 -13 13 -3 22 -17 26 -36 4 -17 12 -36 20 -42 8 -7 10 -18 5 -32 -12 -32 -3
-49 19 -37 12 7 16 17 13 31 -4 14 -2 20 5 16 5 -4 9 -19 6 -35 -2 -15 -5 -64
-8 -110 l-5 -83 37 -37 c65 -64 102 -160 95 -243 -5 -51 -4 -59 11 -59 11 0
16 -6 14 -17 -4 -20 -49 -27 -60 -10 -7 12 -12 4 -22 -46 -4 -15 -11 -25 -16
-22 -6 4 -10 -7 -10 -23 0 -23 -8 -33 -39 -50 -41 -23 -71 -72 -76 -126 -2
-17 -6 -83 -10 -146 -3 -63 -8 -122 -11 -131 -4 -14 5 -65 27 -164 24 -104 24
-106 -20 -161 -43 -55 -87 -80 -119 -70 -11 4 -23 2 -27 -4 -3 -5 -21 -10 -40
-10 -26 0 -38 7 -55 30 -15 22 -30 30 -51 30 -35 0 -36 -3 -8 -31 28 -28 21
-55 -13 -51 -15 1 -29 -2 -33 -8 -3 -5 -14 -10 -25 -10 -16 0 -35 -25 -32 -42
3 -15 -50 -21 -58 -8 -20 32 -69 18 -128 -37 -21 -19 -24 -29 -19 -60 9 -56
28 -69 75 -54 35 12 43 11 90 -12 28 -14 53 -22 56 -19 4 3 6 18 6 33 0 22 6
30 26 35 43 11 13 23 -66 26 -69 3 -75 5 -78 25 -5 31 40 53 69 35 17 -11 25
-9 58 18 22 16 42 30 45 30 3 0 6 -14 6 -31 0 -24 3 -29 13 -22 6 5 28 9 47 8
163 -10 257 -17 269 -21 23 -7 -4 -29 -40 -32 -18 -1 -38 -7 -45 -13 -7 -6
-45 -11 -84 -11 -38 0 -70 -4 -70 -8 0 -12 123 -50 160 -50 16 0 30 -5 30 -10
0 -7 13 -8 35 -4 31 5 35 4 41 -20 13 -54 -26 -86 -57 -47 l-18 22 -7 -36 c-4
-23 -2 -41 6 -50 11 -13 10 -18 -6 -30 -10 -8 -34 -17 -51 -21 -18 -3 -30 -10
-27 -15 3 -5 0 -9 -6 -9 -6 0 -8 -4 -5 -10 3 -5 29 -9 56 -8 28 0 55 -4 62
-11 6 -6 21 -11 32 -11 27 0 35 -8 28 -28 -6 -13 -7 -13 -13 2 -6 17 -8 17
-22 3 -9 -9 -19 -13 -24 -9 -5 4 -2 -1 5 -10 16 -21 17 -20 -29 -23 -19 -1
-41 3 -48 8 -7 6 -42 11 -78 11 -62 1 -64 0 -74 -28 -12 -36 -4 -49 25 -42 13
3 36 1 51 -5 24 -8 31 -7 44 10 16 21 108 42 96 22 -4 -6 -12 -9 -17 -6 -5 3
-6 -1 -3 -9 7 -18 30 -21 39 -6 10 16 35 12 29 -5 -4 -10 0 -15 15 -15 16 0
21 -6 21 -25 0 -14 5 -25 12 -25 6 0 8 -3 5 -7 -4 -3 0 -11 9 -17 36 -27 -41
-126 -97 -126 -32 0 -75 -17 -102 -39 -20 -16 -100 -17 -182 -2 -56 11 -180
78 -208 113 -10 13 -38 43 -61 68 -23 25 -55 63 -71 85 -16 22 -45 59 -65 82
-71 85 -121 153 -140 195 -11 24 -27 54 -35 68 -61 106 -79 230 -71 479 3 111
10 188 16 196 7 9 10 47 8 99 -2 69 0 87 12 92 13 5 13 7 0 17 -19 15 -14 54
10 69 13 9 16 17 10 32 -11 30 -3 234 11 281 7 22 21 49 31 61 10 11 18 26 18
32 0 7 13 26 29 43 17 17 33 45 36 62 4 18 16 59 27 92 11 33 22 76 25 95 3
19 9 40 15 47 5 7 7 21 4 31 -4 11 2 29 13 44 11 14 17 28 14 32 -9 8 26 76
49 96 10 8 33 35 52 60 33 41 37 44 78 41 35 -2 48 2 67 23 16 17 31 24 45 21
12 -3 53 -7 91 -9z m-1534 -5 c7 11 9 11 9 -3 0 -23 -36 -24 -44 -2 -6 14 -4
15 10 4 13 -12 17 -11 25 1z m4019 -362 c0 -5 -4 -9 -10 -9 -5 0 -10 7 -10 16
0 8 5 12 10 9 6 -3 10 -10 10 -16z m245 -44 c14 -13 25 -34 25 -47 -1 -21 -3
-20 -35 14 -19 21 -35 42 -35 48 0 17 20 11 45 -15z m-152 -29 c30 -22 35 -36
12 -36 -8 0 -15 7 -15 15 0 8 -11 17 -25 21 -14 3 -25 13 -25 21 0 15 7 13 53
-21z m-4667 -193 c-2 -3 -15 -2 -28 3 l-23 7 24 9 c18 6 21 11 12 22 -9 11 -9
15 1 18 13 5 25 -48 14 -59z m2653 -90 c1 -25 -18 -32 -20 -8 -2 22 -2 43 0
58 3 17 19 -24 20 -50z m2278 -35 c-3 -8 -6 -5 -6 6 -1 11 2 17 5 13 3 -3 4
-12 1 -19z m-5007 -12 c0 -16 -18 -31 -27 -22 -8 8 5 36 17 36 5 0 10 -6 10
-14z m26 -101 c4 -16 13 -25 26 -25 15 0 19 -6 16 -27 -3 -26 -6 -28 -50 -27
-27 1 -48 -2 -48 -7 0 -20 4 -24 23 -21 12 2 17 -1 13 -7 -10 -16 -53 -13 -60
4 -3 8 -12 15 -21 15 -8 0 -15 6 -15 13 0 15 47 67 60 67 6 0 10 7 10 16 0 8
5 12 10 9 6 -3 10 -1 10 4 0 21 20 10 26 -14z m5214 -89 c0 -11 -19 -15 -25
-6 -3 5 1 10 9 10 9 0 16 -2 16 -4z m-5347 -41 c-18 -25 -40 -35 -27 -12 6 9
5 9 -8 0 -8 -7 -18 -10 -21 -6 -4 3 -7 1 -7 -5 0 -7 7 -12 15 -12 8 0 19 -8
24 -17 12 -23 6 -110 -9 -128 -16 -19 -5 -45 18 -45 14 0 25 -14 37 -46 16
-43 16 -47 1 -56 -18 -10 -22 -38 -5 -38 6 0 9 -6 6 -12 -2 -7 -15 -12 -29
-10 -18 2 -27 -4 -36 -22 -6 -14 -25 -29 -46 -36 -24 -8 -42 -24 -59 -53 l-25
-41 -21 34 c-11 19 -21 38 -21 42 0 3 18 9 39 13 49 8 65 26 79 93 12 52 11
53 -24 101 -19 27 -50 59 -69 70 -32 18 -35 24 -35 66 0 79 43 134 95 121 12
-3 40 1 61 8 22 8 49 15 62 15 23 1 23 1 5 -24z m211 -166 c-3 -132 -3 -128
-29 -135 -48 -12 -80 39 -67 106 6 26 16 39 42 52 45 23 55 19 54 -23z m5376
-529 c8 -5 11 -10 5 -10 -5 0 -4 -4 4 -9 8 -5 9 -11 3 -15 -11 -7 -42 19 -42
35 0 12 11 11 30 -1z m-2600 -429 c0 -13 -29 -35 -37 -28 -7 8 15 37 28 37 5
0 9 -4 9 -9z m2545 -211 c3 -5 2 -10 -4 -10 -5 0 -13 5 -16 10 -3 6 -2 10 4
10 5 0 13 -4 16 -10z m-3537 -178 c9 -10 32 -36 50 -57 19 -22 42 -44 52 -50
10 -5 43 -25 74 -43 31 -18 60 -31 65 -27 6 3 27 -1 47 -10 20 -8 44 -15 54
-15 25 0 93 -32 114 -53 10 -9 26 -17 37 -17 11 0 22 -7 25 -15 4 -8 14 -15
25 -15 10 0 23 -9 29 -20 9 -16 14 -18 29 -8 11 7 29 8 47 3 16 -5 32 -8 35
-7 4 1 5 -8 2 -18 -6 -22 15 -28 33 -10 19 19 38 -19 39 -73 0 -63 -7 -67
-162 -102 -85 -20 -135 -25 -238 -25 -138 1 -200 10 -357 56 l-98 28 5 66 c2
36 7 88 11 115 9 59 9 100 -1 137 -4 15 -5 35 -1 43 3 8 4 17 3 19 -1 1 3 9
10 17 6 8 16 33 22 57 13 46 22 51 49 24z m2892 -336 c-14 -14 -24 0 -16 21 6
15 8 15 16 3 6 -9 5 -19 0 -24z m-4930 -109 c-17 -9 -24 -20 -22 -35 2 -12 -2
-22 -7 -22 -6 0 -11 9 -11 20 0 11 -5 20 -12 20 -17 0 3 17 27 23 39 9 50 7
25 -6z m4910 -37 c-12 -8 -12 -10 -1 -10 8 0 12 -3 8 -6 -9 -9 -28 6 -22 17 4
5 12 9 18 9 7 0 6 -4 -3 -10z m-4893 -97 c-3 -3 -10 -2 -16 2 -7 4 -7 10 2 20
10 11 13 11 15 -2 2 -8 1 -17 -1 -20z m2728 -482 c3 -5 1 -12 -5 -16 -5 -3
-10 1 -10 9 0 18 6 21 15 7z"/>
<path d="M4912 3913 c-6 -2 -9 -9 -6 -14 3 -6 1 -16 -5 -23 -8 -10 -2 -16 30
-26 42 -14 61 -30 35 -30 -18 0 -21 -31 -5 -47 8 -8 -1 -19 -30 -39 -41 -29
-53 -54 -26 -54 21 0 19 -16 -7 -40 -26 -24 -18 -35 25 -35 20 0 40 9 58 28
38 38 59 36 59 -6 0 -53 30 -77 95 -77 45 0 57 4 73 25 25 31 32 31 32 1 0
-35 18 -42 41 -17 11 12 23 21 28 21 4 0 7 17 6 38 -1 20 3 43 8 50 7 9 4 17
-9 27 -15 12 -16 14 -3 15 8 0 24 -7 35 -15 25 -19 60 -19 68 0 14 39 -60 95
-185 140 -41 14 -84 33 -96 41 -12 8 -39 14 -60 14 -21 1 -49 7 -63 15 -25 14
-73 18 -98 8z m130 -130 c28 -8 10 -23 -25 -22 -31 1 -31 1 -7 9 16 5 19 8 8
9 -9 1 -20 6 -24 13 -5 8 -2 9 12 4 10 -5 27 -11 36 -13z m88 -62 c0 -13 -20
-18 -55 -15 -39 3 -37 2 -30 14 8 12 85 13 85 1z m-113 -17 c-3 -3 -12 -4 -19
-1 -8 3 -5 6 6 6 11 1 17 -2 13 -5z m93 -59 c0 -8 -7 -15 -15 -15 -16 0 -20
12 -8 23 11 12 23 8 23 -8z"/>
<path d="M4830 3859 c-17 -30 -8 -31 17 -3 15 17 17 24 8 24 -8 0 -19 -9 -25
-21z"/>
<path d="M2893 3643 c9 -2 23 -2 30 0 6 3 -1 5 -18 5 -16 0 -22 -2 -12 -5z"/>
<path d="M2970 3381 c0 -5 9 -7 20 -4 11 3 20 7 20 9 0 2 -9 4 -20 4 -11 0
-20 -4 -20 -9z"/>
<path d="M5003 7113 c9 -2 23 -2 30 0 6 3 -1 5 -18 5 -16 0 -22 -2 -12 -5z"/>
<path d="M4993 7086 c0 -8 6 -12 14 -9 7 3 13 9 13 14 0 5 -6 9 -13 9 -8 0
-14 -6 -14 -14z"/>
<path d="M5040 6910 c0 -5 7 -10 16 -10 8 0 12 5 9 10 -3 6 -10 10 -16 10 -5
0 -9 -4 -9 -10z"/>
<path d="M4941 6484 c0 -11 3 -14 6 -6 3 7 2 16 -1 19 -3 4 -6 -2 -5 -13z"/>
<path d="M3835 6030 c-4 -6 6 -10 22 -10 22 0 25 2 13 10 -19 12 -27 12 -35 0z"/>
<path d="M3821 5404 c0 -11 3 -14 6 -6 3 7 2 16 -1 19 -3 4 -6 -2 -5 -13z"/>
<path d="M7950 4550 c0 -5 5 -10 11 -10 5 0 7 5 4 10 -3 6 -8 10 -11 10 -2 0
-4 -4 -4 -10z"/>
<path d="M8327 4484 c-4 -4 -7 -14 -7 -23 0 -11 3 -12 11 -4 6 6 10 16 7 23
-2 6 -7 8 -11 4z"/>
<path d="M8520 4346 c0 -21 -28 -74 -59 -112 -5 -6 -12 -21 -15 -35 -7 -22 -5
-22 21 8 63 71 95 150 66 160 -8 3 -13 -5 -13 -21z"/>
<path d="M8468 4353 c-10 -2 -18 -9 -18 -15 0 -6 10 -8 23 -4 12 3 25 6 30 6
4 0 7 5 7 10 0 10 -12 11 -42 3z"/>
<path d="M8360 4330 c0 -5 11 -10 25 -10 14 0 25 5 25 10 0 6 -11 10 -25 10
-14 0 -25 -4 -25 -10z"/>
<path d="M3026 4191 c4 -36 3 -61 -4 -65 -5 -3 -8 -15 -5 -26 4 -16 -1 -21
-26 -26 -38 -8 -40 -19 -4 -22 16 -1 36 7 50 20 19 18 23 31 23 82 -1 54 -15
96 -33 96 -4 0 -4 -26 -1 -59z"/>
<path d="M8602 3664 c-12 -8 -22 -25 -22 -37 1 -22 1 -22 16 -2 18 23 36 55
32 55 -2 0 -14 -7 -26 -16z"/>
<path d="M8408 3553 c7 -3 16 -2 19 1 4 3 -2 6 -13 5 -11 0 -14 -3 -6 -6z"/>
<path d="M8440 3492 c0 -5 7 -13 16 -16 10 -4 14 -1 12 6 -5 15 -28 23 -28 10z"/>
<path d="M8798 3489 c-10 -5 -15 -16 -11 -25 5 -13 8 -13 24 2 31 28 22 44
-13 23z"/>
<path d="M8765 3430 c-3 -5 -2 -10 4 -10 5 0 13 5 16 10 3 6 2 10 -4 10 -5 0
-13 -4 -16 -10z"/>
<path d="M3005 2230 c-3 -5 1 -10 10 -10 9 0 13 5 10 10 -3 6 -8 10 -10 10 -2
0 -7 -4 -10 -10z"/>
<path d="M3060 2172 c0 -11 37 -32 44 -25 3 3 -2 12 -12 19 -19 15 -32 18 -32
6z"/>
<path d="M1600 1074 c0 -11 16 -14 65 -14 37 0 65 4 65 10 0 6 -10 10 -22 11
-13 0 -42 2 -65 4 -32 2 -43 0 -43 -11z"/>
<path d="M85 1060 c12 -5 14 -9 6 -9 -8 -1 -12 -3 -10 -6 8 -7 49 6 49 16 0 5
-15 9 -32 8 -28 0 -30 -2 -13 -9z"/>
<path d="M6250 995 c0 -9 -4 -14 -9 -11 -4 3 -14 -13 -21 -34 -7 -22 -17 -40
-22 -40 -15 0 -9 -27 13 -53 11 -15 23 -43 26 -62 4 -28 10 -35 27 -34 11 0
15 3 9 6 -7 2 -13 9 -13 14 0 6 5 7 12 3 7 -4 8 -3 4 4 -4 6 1 23 10 37 9 14
14 34 11 45 -3 13 0 20 10 20 11 0 13 10 11 42 -3 35 -8 45 -35 61 -30 17 -33
17 -33 2z"/>
<path d="M4657 974 c-43 -8 -92 -21 -110 -31 -18 -9 -69 -20 -114 -24 -70 -6
-89 -12 -135 -43 -90 -60 -154 -122 -199 -196 -24 -39 -75 -115 -112 -168 -38
-53 -80 -121 -94 -151 -75 -161 -71 -227 12 -188 37 18 36 17 141 177 95 145
327 418 405 475 80 59 113 69 187 55 101 -18 202 16 202 68 0 22 -39 42 -78
41 -15 0 -62 -7 -105 -15z"/>
<path d="M2070 910 c0 -5 5 -10 10 -10 6 0 10 5 10 10 0 6 -4 10 -10 10 -5 0
-10 -4 -10 -10z"/>
<path d="M5927 736 c-26 -7 -59 -24 -73 -37 -23 -21 -25 -30 -21 -71 7 -54 1
-60 -43 -52 -23 5 -30 11 -25 23 4 9 9 31 12 49 7 39 -18 72 -53 72 -30 0 -42
-20 -15 -27 28 -7 38 -49 20 -82 -8 -13 -38 -41 -68 -62 -83 -57 -85 -61 -85
-133 0 -75 21 -116 59 -116 13 0 27 5 30 10 3 6 -3 10 -13 10 -26 0 -42 21
-49 66 -4 27 -3 35 5 30 7 -4 12 -18 12 -32 0 -13 4 -24 10 -24 5 0 9 25 8 56
-1 49 2 58 30 87 29 28 40 32 109 38 47 4 87 2 101 -4 17 -8 26 -7 38 5 14 14
14 17 -1 32 -9 9 -20 30 -25 47 -17 60 27 105 101 102 39 -2 52 10 23 21 -21
8 -30 7 -87 -8z"/>
<path d="M5947 684 c-12 -12 -8 -51 7 -63 18 -15 39 9 34 41 -3 22 -27 35 -41
22z"/>
<path d="M5548 641 c-54 -34 -79 -81 -43 -81 19 0 19 -2 -6 -44 -25 -42 -31
-44 -52 -13 -21 31 -32 15 -13 -20 17 -31 51 -73 59 -73 3 0 8 19 12 43 8 47
45 102 75 112 33 10 23 21 -15 17 -50 -6 -46 16 11 56 17 12 34 19 38 15 3 -3
6 -1 6 5 0 19 -23 14 -72 -17z"/>
<path d="M5627 643 c-4 -3 -7 -18 -7 -31 l0 -25 25 23 c14 13 25 27 25 32 0
10 -34 11 -43 1z"/>
<path d="M6027 602 c-34 -52 -27 -70 41 -113 38 -24 57 -29 106 -29 110 0 189
-36 239 -107 32 -46 74 -202 79 -292 2 -52 5 -61 22 -61 17 0 18 5 12 63 -9
79 -43 230 -65 282 -19 47 -74 105 -99 105 -10 0 -34 12 -53 26 -30 23 -40 25
-93 20 -63 -6 -96 4 -150 47 -25 21 -27 26 -17 46 7 12 11 29 9 38 -2 11 -12
3 -31 -25z"/>
<path d="M5170 583 c-14 -3 -44 -23 -67 -44 -51 -47 -71 -49 -84 -9 -26 74
-152 32 -188 -63 -15 -38 -14 -120 1 -135 10 -10 8 -14 -10 -18 -33 -9 -16
-24 27 -24 48 0 52 5 34 42 -20 39 -12 98 19 144 25 37 62 53 81 35 14 -14 16
-130 3 -178 -8 -32 -8 -33 23 -33 31 0 31 0 31 55 0 84 18 117 92 164 64 41
103 50 139 30 11 -6 25 -8 32 -6 16 5 -67 47 -90 46 -10 -1 -29 -4 -43 -6z"/>
<path d="M5253 482 c25 -26 28 -35 22 -64 -12 -52 -31 -83 -75 -118 -45 -36
-44 -43 14 -59 85 -23 166 53 166 157 0 69 -12 88 -62 95 -24 4 -54 10 -68 13
l-25 7 28 -31z m77 -64 c0 -54 -22 -118 -48 -138 -48 -39 -86 -15 -41 26 31
28 49 68 49 112 0 21 3 42 7 45 12 13 33 -16 33 -45z"/>
<path d="M5922 481 c-25 -23 -32 -38 -32 -66 0 -78 -54 -136 -132 -142 -73 -6
-98 -12 -98 -23 0 -19 123 -11 157 10 41 25 89 90 97 133 9 50 42 64 92 39 61
-31 84 -36 84 -18 0 9 -8 16 -20 16 -10 0 -38 18 -61 40 -23 22 -45 40 -48 40
-4 0 -21 -13 -39 -29z"/>
<path d="M5750 477 c-35 -17 -46 -28 -48 -49 -4 -34 16 -37 43 -8 10 12 34 30
52 41 18 11 31 25 27 30 -8 14 -24 11 -74 -14z"/>
<path d="M4930 434 c-13 -33 -13 -74 0 -74 12 0 16 10 25 63 7 43 -10 51 -25
11z"/>
<path d="M5142 444 c-12 -8 -22 -20 -22 -27 0 -8 3 -8 12 1 18 18 28 15 28 -8
0 -11 -11 -27 -26 -36 -17 -12 -22 -20 -15 -27 14 -14 50 18 68 61 21 50 0 68
-45 36z"/>
<path d="M5783 400 c-24 -10 -32 -40 -10 -40 17 0 57 29 57 41 0 11 -17 11
-47 -1z"/>
<path d="M6267 373 c-11 -10 -8 -93 4 -136 5 -20 27 -74 48 -120 21 -45 41
-90 44 -100 4 -10 17 -17 32 -17 29 0 30 8 15 127 -13 94 -44 192 -71 227 -19
24 -57 34 -72 19z m76 -86 c23 -49 40 -138 28 -150 -17 -17 -81 118 -81 170 0
37 31 25 53 -20z"/>
<path d="M6178 364 c-13 -12 -9 -85 7 -143 15 -58 12 -76 -11 -67 -27 11 -75
-7 -94 -35 -11 -15 -24 -48 -29 -73 -7 -41 -6 -46 9 -46 12 0 21 10 25 30 4
16 20 41 37 56 26 21 38 24 67 19 20 -4 42 -11 49 -17 15 -13 15 -7 1 29 -21
53 -41 138 -48 196 -3 33 -9 55 -13 51z"/>
<path d="M4659 301 c-13 -11 -19 -20 -14 -20 14 0 50 28 43 34 -3 3 -16 -3
-29 -14z"/>
<path d="M5440 311 c0 -5 -3 -16 -6 -25 -4 -11 -1 -16 11 -16 9 0 30 -11 47
-25 20 -17 42 -25 69 -25 21 0 39 2 39 5 0 2 -19 13 -42 23 -24 11 -54 31 -67
46 -24 26 -51 35 -51 17z"/>
<path d="M8770 276 c0 -11 43 -76 47 -72 3 3 -5 21 -17 40 -20 33 -30 43 -30
32z"/>
<path d="M6723 263 c-7 -2 -13 -15 -13 -28 0 -13 -4 -27 -10 -30 -5 -3 -10
-17 -10 -31 0 -14 -4 -22 -10 -19 -5 3 -10 -2 -10 -12 0 -11 -5 -24 -12 -31
-10 -10 5 -11 54 -3 4 0 15 17 24 37 16 34 18 35 25 15 13 -34 17 -25 11 27
-7 71 -19 88 -49 75z"/>
<path d="M4614 214 c-7 -49 0 -166 11 -196 10 -26 38 -23 30 3 -12 38 -22 174
-14 207 5 24 3 32 -6 32 -9 0 -16 -18 -21 -46z"/>
<path d="M4905 248 c-16 -5 -36 -11 -43 -14 -11 -3 -9 -12 7 -38 27 -42 51
-121 51 -163 0 -28 3 -33 25 -33 14 0 25 5 25 12 0 12 -35 125 -51 167 -12 29
1 41 49 41 34 0 44 14 15 23 -10 2 -25 7 -33 10 -8 3 -28 1 -45 -5z"/>
<path d="M4719 231 c-7 -21 3 -131 12 -131 5 0 9 21 9 47 0 64 12 46 41 -60
16 -57 28 -87 38 -87 11 0 13 13 8 66 -8 79 -50 167 -83 172 -12 2 -24 -2 -25
-7z"/>
<path d="M5110 195 c81 -33 171 -49 127 -24 -10 6 -25 8 -33 5 -8 -3 -14 -2
-14 2 0 13 -103 52 -135 51 -23 0 -11 -8 55 -34z"/>
<path d="M5370 203 c-19 -14 -47 -27 -62 -30 -29 -6 -39 -23 -14 -23 26 0 63
18 91 44 37 34 29 39 -15 9z"/>
<path d="M5832 194 c-26 -18 -52 -65 -52 -94 0 -17 -6 -20 -40 -20 -43 0 -90
-34 -90 -65 0 -21 11 -19 38 9 26 28 98 44 115 27 24 -24 40 -13 33 24 -7 34
6 72 28 87 16 11 70 10 101 -2 31 -12 59 -72 50 -107 -4 -16 -2 -22 5 -18 12
7 13 94 2 113 -5 6 -23 23 -42 37 -40 29 -113 34 -148 9z"/>
<path d="M4336 191 c-3 -5 2 -11 13 -14 19 -5 31 -59 31 -138 0 -32 4 -39 19
-39 19 0 19 6 14 88 -3 48 -10 93 -16 100 -11 14 -53 16 -61 3z"/>
<path d="M5470 177 c-26 -13 -38 -53 -25 -85 5 -13 9 -11 21 14 15 31 60 64
88 64 9 0 16 5 16 10 0 14 -70 12 -100 -3z"/>
<path d="M5912 68 c2 -13 8 -23 13 -23 6 0 11 10 13 23 2 15 -2 22 -13 22 -11
0 -15 -7 -13 -22z"/>
<path d="M4736 65 c8 -19 14 -19 14 0 0 8 -4 15 -10 15 -5 0 -7 -7 -4 -15z"/>
<path d="M5468 35 c18 -36 46 -46 56 -19 9 23 8 24 -19 24 -14 0 -28 7 -31 15
-4 8 -10 15 -15 15 -5 0 -1 -16 9 -35z"/>
<path d="M6625 58 c-4 -10 -4 -26 0 -35 8 -17 8 -17 12 0 3 9 3 25 0 35 -4 16
-4 16 -12 0z"/>
<path d="M5220 54 c-8 -3 -32 -12 -52 -21 -33 -14 -38 -14 -59 1 -33 23 -86
21 -99 -3 -5 -11 -10 -22 -10 -25 0 -14 168 -5 199 10 35 18 112 14 137 -7 7
-6 25 -9 41 -7 l28 3 -39 24 c-37 23 -114 37 -146 25z"/>
<path d="M5560 33 c0 -26 4 -33 20 -33 25 0 25 11 0 41 l-19 24 -1 -32z"/>
<path d="M6254 44 c3 -9 6 -22 6 -30 0 -8 7 -14 15 -14 18 0 18 2 3 35 -12 27
-34 36 -24 9z"/>
<path d="M3763 31 c-32 -27 -29 -33 20 -29 34 2 42 7 42 23 0 27 -34 30 -62 6z"/>
<path d="M6156 35 c-10 -27 -7 -35 15 -35 15 0 20 5 17 22 -4 27 -23 35 -32
13z"/>
<path d="M4740 33 c0 -14 19 -38 25 -32 8 8 -5 39 -16 39 -5 0 -9 -3 -9 -7z"/>
</g>
</svg>
